<?xml version="1.0" encoding="utf-8"?>
<!-- Generator: Adobe Illustrator 25.1.0, SVG Export Plug-In . SVG Version: 6.00 Build 0)  -->
<svg version="1.1" id="Layer_1" xmlns="http://www.w3.org/2000/svg" xmlns:xlink="http://www.w3.org/1999/xlink" x="0px" y="0px"
	 viewBox="0 0 102.6 90" style="enable-background:new 0 0 102.6 90;" xml:space="preserve">
<style type="text/css">
	.st0{fill:#CB594D;}
</style>
<g id="a1ad78da-0fa2-465b-962d-a6537a1e404c" transform="matrix(1.325107725211968,0,0,1.325107725211968,98.11461272462275,-21.331765949363742)">
	<path class="st0" d="M-7.7,51.2H-63c-0.6,0-1.1-0.5-1.1-1.1s0.5-1.1,1.1-1.1h55.4c0.6,0,1.1,0.5,1.1,1.1S-7,51.2-7.7,51.2z"/>
	<path class="st0" d="M-6.5,50.1c0-15.9-12.9-28.8-28.8-28.8l0,0l0,0c-15.9,0-28.8,12.9-28.8,28.8c0,15.9,12.9,28.8,28.8,28.8
		C-19.5,78.9-6.5,65.9-6.5,50.1L-6.5,50.1z M-16.1,68.3c-1.4-1.2-2.9-2.3-4.5-3.3c3.9-9.7,3.9-20.5-0.1-30.2c1.6-0.9,3-2,4.4-3.2
		c4.6,4.8,7.5,11.3,7.5,18.5C-8.8,57.1-11.6,63.6-16.1,68.3L-16.1,68.3z M-47.2,66c3.4-1.7,7-2.6,10.8-2.8v13.4
		c-1.2-0.1-2.5-0.2-3.7-0.4C-43.1,73.2-45.5,69.8-47.2,66z M-44.1,75.1c-3.3-1.1-6.3-2.9-8.9-5.2c1.2-1,2.4-2,3.8-2.8
		C-47.8,70-46.1,72.7-44.1,75.1z M-40.1,23.9c1.2-0.2,2.4-0.4,3.7-0.4v13c-3.7-0.2-7.3-1.1-10.6-2.7C-45.3,30.2-43,26.8-40.1,23.9z
		 M-49.1,32.7c-1.3-0.8-2.6-1.7-3.7-2.7c2.5-2.2,5.5-3.9,8.7-5.1C-46.1,27.4-47.7,30-49.1,32.7z M-23.6,33.8
		c-3.3,1.6-6.9,2.6-10.6,2.7v-13c1.2,0.1,2.5,0.2,3.7,0.4C-27.7,26.8-25.4,30.2-23.6,33.8z M-26.6,25c3.2,1.1,6.1,2.8,8.7,5.1
		c-1.2,1-2.4,1.9-3.7,2.7C-23,30-24.6,27.4-26.6,25z M-34.2,38.8c4-0.2,7.9-1.1,11.6-2.9c3.7,9,3.7,19,0.1,28.1
		c-3.6-1.8-7.6-2.8-11.7-3C-34.2,61-34.2,38.8-34.2,38.8z M-36.5,38.8V61c-4.1,0.2-8,1.2-11.7,3c-3.6-9-3.6-19.1,0.1-28.1
		C-44.4,37.6-40.5,38.6-36.5,38.8z M-34.2,63.2c3.7,0.2,7.4,1.1,10.8,2.8c-1.8,3.8-4.2,7.2-7.1,10.2c-1.2,0.2-2.4,0.4-3.7,0.4
		L-34.2,63.2L-34.2,63.2z M-21.5,67.1c1.3,0.8,2.6,1.8,3.8,2.8c-2.6,2.3-5.6,4.1-8.9,5.2C-24.6,72.7-22.9,70-21.5,67.1z M-54.4,31.6
		c1.4,1.2,2.8,2.3,4.4,3.2c-4,9.7-4.1,20.5-0.1,30.2c-1.6,1-3.1,2.1-4.5,3.3c-4.5-4.8-7.3-11.2-7.3-18.3
		C-61.9,42.9-59.1,36.4-54.4,31.6z M-66.4,30.5c0.4,0,0.7-0.2,0.9-0.5c1.4-2.1,3-4,4.8-5.7c0.4-0.4,0.4-1.2,0-1.6
		c-0.4-0.4-1.1-0.4-1.5,0c-1.9,1.8-3.6,3.9-5.1,6c-0.3,0.5-0.2,1.2,0.3,1.6C-66.9,30.5-66.7,30.5-66.4,30.5z M-68.7,33.1
		c-0.6-0.3-1.2,0-1.5,0.5c-1.2,2.4-2.1,4.9-2.7,7.4c-0.2,0.6,0.2,1.2,0.8,1.4c0.6,0.2,1.2-0.2,1.4-0.8c0.6-2.4,1.5-4.8,2.5-7
		C-67.9,34.1-68.1,33.4-68.7,33.1z M-70.8,59c-0.2-0.6-0.8-1-1.4-0.8c-0.6,0.2-0.9,0.7-0.8,1.3c0.6,2.5,1.4,4.9,2.5,7.2
		c0.3,0.6,1,0.8,1.5,0.5c0.5-0.3,0.8-0.9,0.5-1.4C-69.5,63.6-70.2,61.3-70.8,59z M-62.5,77.6c0.6,0,1.1-0.5,1.1-1.1
		c0-0.3-0.1-0.6-0.3-0.8c-1.7-1.7-3.1-3.6-4.4-5.6c-0.3-0.5-1-0.7-1.6-0.3s-0.7,1-0.3,1.6l0,0c1.4,2.1,2.9,4.1,4.7,6
		C-63.1,77.5-62.8,77.6-62.5,77.6z M-55.7,73.7c-0.6,0-1.1,0.5-1.1,1.1v5.1c-0.4-0.3-0.8-0.6-1.2-0.9c-0.5-0.4-1.2-0.3-1.6,0.2
		c-0.4,0.5-0.3,1.2,0.2,1.6c0.4,0.3,0.8,0.6,1.2,0.9h-5.6c-0.6,0-1.1,0.6-1.1,1.2c0,0.6,0.5,1.1,1.1,1.1h8c0.6,0,1.1-0.5,1.1-1.1
		v-0.6c0,0,0-0.1,0-0.1v-7.3C-54.6,74.2-55.1,73.7-55.7,73.7z M-72.6,55.3c0.6-0.1,1.1-0.6,1-1.2c-0.2-2.4-0.2-4.9,0-7.3
		c0.1-0.6-0.4-1.2-1-1.2c-0.6-0.1-1.2,0.4-1.2,1l0,0c-0.1,1.3-0.2,2.6-0.2,4c0,1.3,0.1,2.5,0.2,3.8c0.1,0.6,0.5,1,1.1,1
		C-72.7,55.3-72.7,55.3-72.6,55.3z M-57.3,21.2c0.2,0,0.5-0.1,0.7-0.2c1-0.7,2.1-1.4,3.1-2c0.5-0.3,0.7-1,0.4-1.5
		c-0.3-0.5-1-0.7-1.5-0.4c-1.1,0.7-2.3,1.4-3.3,2.2c-0.5,0.4-0.6,1.1-0.3,1.6C-58,21-57.7,21.2-57.3,21.2z M1.5,58.1
		C0.9,58,0.3,58.4,0.1,59c-0.5,2.3-1.3,4.6-2.3,6.7c-0.3,0.6,0,1.2,0.6,1.5s1.2,0,1.5-0.6l0,0c1.1-2.3,1.9-4.7,2.5-7.1
		C2.4,58.9,2.1,58.3,1.5,58.1C1.5,58.1,1.5,58.1,1.5,58.1L1.5,58.1z M-3,69.7c-0.5-0.3-1.2-0.2-1.6,0.3c-1.3,2-2.7,3.9-4.4,5.6
		c-0.4,0.4-0.4,1.2,0,1.6c0.4,0.4,1.2,0.4,1.6,0c1.7-1.8,3.3-3.8,4.7-6C-2.3,70.7-2.5,70-3,69.7C-3,69.7-3,69.7-3,69.7L-3,69.7z
		 M-9.6,23.2c-0.4,0.4-0.4,1.2,0,1.6c1.7,1.7,3.3,3.6,4.6,5.7c0.3,0.5,1,0.7,1.6,0.3c0,0,0,0,0,0c0.5-0.3,0.7-1,0.3-1.6
		C-4.5,27-6.1,25-8,23.2C-8.4,22.7-9.1,22.7-9.6,23.2C-9.6,23.2-9.6,23.2-9.6,23.2L-9.6,23.2z M1.1,42.6c0.6,0,1.1-0.5,1.1-1.1
		c0-0.1,0-0.2,0-0.3c-0.6-2.5-1.5-5-2.6-7.3c-0.3-0.6-0.9-0.8-1.5-0.5c0,0,0,0,0,0c-0.6,0.3-0.8,0.9-0.5,1.5c0,0,0,0,0,0
		c1,2.2,1.9,4.5,2.5,6.9C0.2,42.3,0.6,42.6,1.1,42.6L1.1,42.6z M3.2,46.6c-0.1-0.6-0.6-1.1-1.2-1c-0.6,0.1-1.1,0.6-1,1.2
		c0,0,0,0,0,0c0.2,2.4,0.2,4.8,0,7.2c-0.1,0.6,0.4,1.2,1,1.2c0,0,0.1,0,0.1,0c0.6,0,1.1-0.4,1.1-1C3.4,51.8,3.4,49.2,3.2,46.6z
		 M-12.6,79c-0.9,0.7-1.9,1.4-2.9,2.1c-0.5,0.3-0.7,1-0.3,1.6c0.2,0.3,0.6,0.5,0.9,0.5c0.2,0,0.4-0.1,0.6-0.2
		c1.1-0.7,2.1-1.4,3.1-2.2c0.5-0.4,0.6-1.1,0.2-1.6C-11.4,78.7-12.1,78.6-12.6,79L-12.6,79z"/>
	<path class="st0" d="M-15.9,26.4c0.6,0,1.1-0.5,1.1-1.1v-4.8c0.4,0.3,0.9,0.6,1.3,0.9c0.5,0.4,1.2,0.3,1.6-0.2c0,0,0,0,0,0
		c0.4-0.5,0.3-1.2-0.2-1.6c0,0,0,0,0,0c-0.6-0.4-1.1-0.8-1.7-1.2h6c0.6,0,1.1-0.5,1.1-1.1s-0.5-1.1-1.1-1.1h-8
		c-0.6,0-1.1,0.5-1.1,1.1v8C-17,25.9-16.5,26.4-15.9,26.4C-15.9,26.4-15.9,26.4-15.9,26.4L-15.9,26.4z"/>
</g>
</svg>
